<svg width="368" height="366" viewBox="0 0 368 366" fill="none" xmlns="http://www.w3.org/2000/svg">
<g filter="url(#filter0_f_20_297)">
<ellipse cx="184" cy="183" rx="183" ry="182" fill="#B81DEF" fill-opacity="0.16"/>
<path d="M364.5 183C364.5 282.122 283.7 362.5 184 362.5C84.2997 362.5 3.5 282.122 3.5 183C3.5 83.8778 84.2997 3.5 184 3.5C283.7 3.5 364.5 83.8778 364.5 183Z" stroke="url(#paint0_linear_20_297)" stroke-width="5"/>
<path d="M364.5 183C364.5 282.122 283.7 362.5 184 362.5C84.2997 362.5 3.5 282.122 3.5 183C3.5 83.8778 84.2997 3.5 184 3.5C283.7 3.5 364.5 83.8778 364.5 183Z" stroke="url(#paint1_linear_20_297)" stroke-opacity="0.2" stroke-width="5"/>
</g>
<defs>
<filter id="filter0_f_20_297" x="0.5" y="0.5" width="367" height="365" filterUnits="userSpaceOnUse" color-interpolation-filters="sRGB">
<feFlood flood-opacity="0" result="BackgroundImageFix"/>
<feBlend mode="normal" in="SourceGraphic" in2="BackgroundImageFix" result="shape"/>
<feGaussianBlur stdDeviation="0.25" result="effect1_foregroundBlur_20_297"/>
</filter>
<linearGradient id="paint0_linear_20_297" x1="184" y1="1" x2="184" y2="365" gradientUnits="userSpaceOnUse">
<stop stop-color="#B81DEF"/>
<stop offset="1"/>
</linearGradient>
<linearGradient id="paint1_linear_20_297" x1="184" y1="1" x2="184" y2="65.5806" gradientUnits="userSpaceOnUse">
<stop stop-color="#F7DEFE"/>
<stop offset="1" stop-color="white" stop-opacity="0"/>
</linearGradient>
</defs>
</svg>
