<svg width="421" height="420" viewBox="0 0 421 420" fill="none" xmlns="http://www.w3.org/2000/svg">
<path d="M418.5 210C418.5 324.593 325.381 417.5 210.5 417.5C95.6192 417.5 2.5 324.593 2.5 210C2.5 95.4065 95.6192 2.5 210.5 2.5C325.381 2.5 418.5 95.4065 418.5 210Z" stroke="url(#paint0_linear_20_298)" stroke-opacity="0.5" stroke-width="5"/>
<path d="M418.5 210C418.5 324.593 325.381 417.5 210.5 417.5C95.6192 417.5 2.5 324.593 2.5 210C2.5 95.4065 95.6192 2.5 210.5 2.5C325.381 2.5 418.5 95.4065 418.5 210Z" stroke="url(#paint1_linear_20_298)" stroke-opacity="0.2" stroke-width="5"/>
<defs>
<linearGradient id="paint0_linear_20_298" x1="210.5" y1="0" x2="210.5" y2="420" gradientUnits="userSpaceOnUse">
<stop stop-color="#B81DEF"/>
<stop offset="1"/>
</linearGradient>
<linearGradient id="paint1_linear_20_298" x1="210.5" y1="0" x2="210.5" y2="74.5161" gradientUnits="userSpaceOnUse">
<stop stop-color="#F7DEFE"/>
<stop offset="1" stop-color="white" stop-opacity="0"/>
</linearGradient>
</defs>
</svg>
